<svg xmlns="http://www.w3.org/2000/svg" xmlns:xlink="http://www.w3.org/1999/xlink" fill="none" version="1.1" width="28.852474212646484" height="37.40599822998047" viewBox="0 0 28.852474212646484 37.40599822998047"><defs><clipPath id="master_svg0_0_347"><g style="mix-blend-mode:passthrough"><path d="M4.032372951507568,0C4.032372951507568,0,28.85247295150757,0,28.85247295150757,0C28.85247295150757,0,28.85247295150757,10.1409,28.85247295150757,10.1409C28.85247295150757,10.1409,4.032372951507568,10.1409,4.032372951507568,10.1409C4.032372951507568,10.1409,4.032372951507568,0,4.032372951507568,0C4.032372951507568,0,4.032372951507568,0,4.032372951507568,0Z" fill-rule="evenodd" fill="#FFFFFF" fill-opacity="1"/></g></clipPath><clipPath id="master_svg1_0_351"><g style="mix-blend-mode:passthrough"><path d="M0,11.364295959472656C0,11.364295959472656,12.8917,11.364295959472656,12.8917,11.364295959472656C12.8917,11.364295959472656,12.8917,37.405995959472655,12.8917,37.405995959472655C12.8917,37.405995959472655,0,37.405995959472655,0,37.405995959472655C0,37.405995959472655,0,11.364295959472656,0,11.364295959472656C0,11.364295959472656,0,11.364295959472656,0,11.364295959472656Z" fill-rule="evenodd" fill="#FFFFFF" fill-opacity="1"/></g></clipPath></defs><g style="mix-blend-mode:passthrough"><g style="mix-blend-mode:passthrough" clipPath="url(#master_svg0_0_347)"><g style="mix-blend-mode:passthrough"><path d="M4.093559219145631,0C4.093559219145631,0,11.973433119145632,0,11.973433119145632,0C11.973433119145632,0,19.853273119145634,0,19.853273119145634,0C22.61677311914563,0,25.003273119145632,1.14455,26.62097311914563,2.98132C28.23857311914563,4.81777,29.09677311914563,7.35416,28.79157311914563,10.1409C28.79157311914563,10.1409,20.908673119145632,10.1409,20.908673119145632,10.1409C20.908673119145632,10.1409,13.029163119145633,10.1409,13.029163119145633,10.1409C10.265653119145632,10.1409,7.8765531191456315,9.00001,6.258883119145632,7.16357C4.6408751191456314,5.32679,3.788646119145632,2.79006,4.093559219145631,0Z" fill-rule="evenodd" fill="#538FFF" fill-opacity="1"/></g></g><g style="mix-blend-mode:passthrough"><path d="M1.743096113204956,21.501095959472657C1.743096113204956,21.501095959472657,9.619976113204956,21.501095959472657,9.619976113204956,21.501095959472657C9.619976113204956,21.501095959472657,17.500196113204957,21.501095959472657,17.500196113204957,21.501095959472657C20.262696113204957,21.501095959472657,22.897896113204958,20.363965959472658,24.919196113204958,18.527525959472655C26.940896113204957,16.690745959472657,28.352096113204958,14.154025959472657,28.657296113204957,11.364295959472656C28.657296113204957,11.364295959472656,20.774396113204958,11.364295959472656,20.774396113204958,11.364295959472656C20.774396113204958,11.364295959472656,12.891596113204956,11.364295959472656,12.891596113204956,11.364295959472656C10.128056113204956,11.364295959472656,7.493566113204956,12.504815959472657,5.472226113204956,14.341925959472656C3.450876113204956,16.178365959472657,2.045350113204956,18.714085959472655,1.743096113204956,21.501095959472657Z" fill-rule="evenodd" fill="#A0C8FF" fill-opacity="1"/></g><g style="mix-blend-mode:passthrough" clipPath="url(#master_svg1_0_351)"><g style="mix-blend-mode:passthrough"><path d="M12.891633743844647,11.364295959472656C12.601433743844646,14.016115959472657,12.311433743844647,16.672295959472656,12.021533743844646,19.320415959472655C11.731533743844647,21.968895959472654,11.440933743844647,24.62099595947266,11.151333743844647,27.268795959472655C10.846033743844647,30.059595959472656,9.435203743844648,32.59659595947265,7.416183743844647,34.43239595947266C5.395173743844647,36.26979595947266,2.759683743844647,37.405995959472655,-0.0001662561553530395,37.405995959472655C0.289784743844647,34.75819595947266,0.580067743844647,32.105695959472655,0.8696857438446469,29.457595959472656C1.1603037438446469,26.808795959472654,1.4529137438446469,24.153595959472657,1.743193743844647,21.501095959472657C2.047773743844647,18.714755959472654,3.450983743844647,16.178365959472657,5.472323743844647,14.341925959472656C7.493663743844647,12.504815959472657,10.128133743844646,11.364295959472656,12.891633743844647,11.364295959472656Z" fill-rule="evenodd" fill="#A0C8FF" fill-opacity="1"/></g></g><g style="mix-blend-mode:passthrough"><path d="M1.743096113204956,21.501095959472657C1.743096113204956,21.501095959472657,6.761036113204956,21.501095959472657,6.761036113204956,21.501095959472657C6.761036113204956,21.501095959472657,11.784996113204956,21.501095959472657,11.784996113204956,21.501095959472657C11.967496113204955,19.814345959472654,12.153396113204955,18.123525959472655,12.338296113204956,16.43640595947266C12.523796113204956,14.749615959472656,12.706396113204956,13.054775959472657,12.891596113204956,11.364295959472656C12.807796113204956,11.364295959472656,12.717996113204956,11.364295959472656,12.634196113204956,11.367986959472656C12.550696113204957,11.367986959472656,12.463996113204956,11.371677969472657,12.380196113204956,11.375033459472656C12.290396113204956,11.382750959472656,12.203596113204956,11.386441959472656,12.119796113204956,11.394159559472657C12.036396113204956,11.401541559472657,11.949596113204956,11.409259059472657,11.862796113204956,11.416305559472656C11.779296113204955,11.424023059472656,11.695526113204956,11.435096059472656,11.608736113204957,11.446169159472657C11.524616113204956,11.457577659472657,11.441146113204956,11.468985959472656,11.354696113204955,11.480058959472656C11.273566113204955,11.495158959472656,11.186776113204957,11.506566959472655,11.103316113204956,11.521330959472657C11.019526113204956,11.536430959472657,10.935736113204957,11.554549959472656,10.852266113204957,11.569985959472657C10.768476113204956,11.588440959472656,10.687676113204956,11.607230959472655,10.603886113204956,11.625685959472657C10.520096113204955,11.644476959472657,10.436626113204957,11.663266959472656,10.355496113204955,11.685412959472655C10.271706113204957,11.704538959472655,10.191236113204956,11.726684959472657,10.110436113204956,11.749501959472656C10.026646113204956,11.771648959472657,9.945846113204956,11.798156959472657,9.865046113204956,11.820302959472656C9.784576113204956,11.846810959472656,9.703776113204956,11.872647959472657,9.623306113204956,11.899155959472656C9.542176113204956,11.924992959472656,9.461376113204956,11.951164959472656,9.380576113204956,11.981364959472657C9.300106113204956,12.011227959472656,9.222296113204955,12.041426959472656,9.138506113204956,12.070954959472656C9.060696113204955,12.100482959472656,8.982886113204955,12.130681959472657,8.905416113204957,12.164572959472656C8.824606113204956,12.194435959472656,8.749796113204956,12.227990959472656,8.668996113204956,12.261880959472656C8.591516113204957,12.295434959472656,8.516376113204956,12.333016959472657,8.438566113204956,12.366575959472657C8.360756113204957,12.403815959472656,8.286276113204956,12.437705959472655,8.211456113204957,12.478645959472656C8.130656113204957,12.516555959472656,8.055846113204957,12.553465959472657,7.9810261132049565,12.590715959472657C7.906546113204956,12.631985959472656,7.831726113204956,12.669565959472656,7.753926113204956,12.710835959472657C7.6794361132049564,12.751775959472656,7.607286113204956,12.792715959472655,7.532796113204956,12.838015959472656C7.460976113204956,12.878945959472656,7.386166113204956,12.923915959472657,7.3143361132049565,12.965185959472656C7.242516113204956,13.009815959472656,7.164706113204956,13.054775959472657,7.098876113204956,13.099735959472657C7.024386113204956,13.148055959472657,6.952566113204956,13.193355959472656,6.881076113204956,13.242005959472657C6.812246113204956,13.286635959472656,6.740086113204956,13.335295959472656,6.671256113204956,13.384285959472656C6.599766113204956,13.432595959472657,6.533936113204956,13.481585959472657,6.465106113204956,13.533595959472656C6.392946113204956,13.581915959472656,6.327776113204956,13.634595959472657,6.258946113204956,13.687275959472656C6.190116113204956,13.739285959472657,6.123946113204956,13.791635959472657,6.0551161132049565,13.843975959472656C5.989606113204956,13.896655959472657,5.920776113204956,13.948665959472656,5.854946113204956,14.004705959472656C5.792096113204956,14.061075959472657,5.7262661132049555,14.117115959472656,5.663746113204956,14.169455959472657C5.597916113204956,14.225495959472656,5.535066113204956,14.285555959472656,5.472226113204956,14.341925959472656C5.4093761132049565,14.397625959472656,5.346866113204956,14.457355959472656,5.2866761132049565,14.517755959472655C5.224166113204956,14.573455959472657,5.164316113204956,14.633185959472655,5.101466113204956,14.693245959472655C5.0386261132049555,14.752975959472657,4.978436113204956,14.816725959472656,4.921916113204956,14.876455959472656C4.862396113204956,14.936175959472656,4.805206113204957,14.999935959472657,4.742686113204956,15.063015959472656C4.685826113204956,15.123415959472656,4.631966113204956,15.187165959472656,4.572106113204956,15.250585959472655C4.515256113204956,15.317695959472656,4.461386113204956,15.381445959472657,4.401866113204957,15.444865959472656C4.3506561132049555,15.512315959472655,4.293796113204956,15.576065959472656,4.240266113204957,15.643505959472655C4.186726113204957,15.710615959472657,4.1328661132049564,15.774375959472657,4.081656113204956,15.841815959472656C4.0277861132049555,15.912955959472656,3.977246113204956,15.979725959472656,3.923046113204956,16.047175959472657C3.875496113204956,16.11461595947266,3.8216261132049563,16.185415959472657,3.773416113204956,16.252865959472658C3.722876113204956,16.323995959472654,3.6716661132049557,16.394795959472656,3.627106113204956,16.466265959472658C3.5762361132049563,16.537065959472656,3.5313461132049557,16.608535959472654,3.483466113204956,16.679335959472656C3.4355861132049563,16.750815959472657,3.3910261132049557,16.821615959472656,3.346136113204956,16.896105959472656C3.301246113204956,16.967235959472657,3.259356113204956,17.042395959472657,3.2144661132049563,17.117565959472657C3.169576113204956,17.191715959472656,3.128006113204956,17.262855959472656,3.086116113204956,17.338015959472656C3.043886113204956,17.412505959472657,3.002316113204956,17.49102595947266,2.960426113204956,17.565515959472656C2.921516113204956,17.641015959472657,2.882286113204956,17.715835959472656,2.843716113204956,17.794355959472657C2.804476113204956,17.868845959472658,2.7685661132049564,17.947365959472656,2.729993113204956,18.02621595947266C2.6970741132049563,18.101045959472657,2.658170113204956,18.179565959472654,2.622259113204956,18.258085959472655C2.589340113204956,18.336595959472657,2.553428113204956,18.415455959472656,2.5205101132049563,18.493635959472655C2.487924113204956,18.576175959472657,2.455005113204956,18.654695959472654,2.421754113204956,18.733215959472655C2.389167113204956,18.815085959472654,2.362234113204956,18.893605959472655,2.331975113204956,18.976145959472657C2.305374113204956,19.054665959472658,2.275116113204956,19.137215959472655,2.248515113204956,19.219425959472655C2.218921113204956,19.301625959472656,2.191988113204956,19.383835959472655,2.165054113204956,19.466385959472657C2.137788113204956,19.548595959472657,2.110855113204956,19.630795959472657,2.089906113204956,19.713345959472655C2.0662981132049563,19.795555959472658,2.045350113204956,19.877765959472654,2.021076113204956,19.963665959472657C2.000128113204956,20.04620595947266,1.979512113204956,20.131765959472656,1.958564113204956,20.214315959472657C1.940608113204956,20.300215959472656,1.919660113204956,20.382755959472654,1.9046971132049562,20.468995959472657C1.883749113204956,20.554895959472656,1.868453113204956,20.640795959472655,1.853823113204956,20.723335959472656C1.8358670132049562,20.808905959472657,1.823896613204956,20.894805959472656,1.811926213204956,20.981375959472658C1.796963113204956,21.067275959472656,1.782000013204956,21.153175959472655,1.770029613204956,21.239065959472654C1.761051813204956,21.328995959472657,1.7520739432049561,21.415195959472655,1.743096113204956,21.501095959472657Z" fill-rule="evenodd" fill="#538FFF" fill-opacity="1"/></g></g></svg>